<svg width="20" height="20" viewBox="0 0 20 20" fill="none" xmlns="http://www.w3.org/2000/svg">
<path fill-rule="evenodd" clip-rule="evenodd" d="M15.4958 12.3014C15.2033 12.0973 14.9921 11.8549 14.8621 11.5742L13 13.3062C13.338 13.8038 13.8189 14.2121 14.4429 14.5311C15.0734 14.8437 15.7558 15 16.4903 15C17.0947 15 17.6634 14.8788 18.1964 14.6364C18.7358 14.3939 19.1713 14.0367 19.5028 13.5646C19.8343 13.0861 20 12.512 20 11.8421C20 11.236 19.8538 10.7448 19.5613 10.3684C19.2753 9.99203 18.9341 9.71132 18.5376 9.52632C18.1476 9.34131 17.6472 9.1563 17.0362 8.97129C16.6657 8.86284 16.3733 8.76715 16.1588 8.68421C15.9508 8.60128 15.7786 8.4992 15.6421 8.37799C15.5056 8.2504 15.4373 8.0941 15.4373 7.90909C15.4373 7.76874 15.5023 7.64753 15.6323 7.54545C15.7688 7.44338 15.9735 7.39234 16.2465 7.39234C16.6365 7.39234 16.9712 7.48166 17.2507 7.66029C17.5302 7.83254 17.7382 8.06539 17.8747 8.35885L19.6978 6.6555C19.3468 6.15152 18.8951 5.7496 18.3426 5.44976C17.7967 5.14992 17.1435 5 16.383 5C15.7201 5 15.1318 5.13397 14.6184 5.40191C14.1049 5.66348 13.7052 6.01754 13.4192 6.46412C13.2971 6.65647 13.2017 6.85674 13.1329 7.06493L16 6L13.0037 7.76252C13.0012 7.81101 13 7.85987 13 7.90909C13 8.51515 13.156 9.01276 13.468 9.40191C13.7799 9.79107 14.1439 10.0877 14.5599 10.2919C14.9824 10.4896 15.5056 10.6906 16.1295 10.8947C16.6365 11.0606 17.0005 11.201 17.2214 11.3158C17.4489 11.4306 17.5627 11.5837 17.5627 11.7751C17.5627 12.0622 17.4587 12.2727 17.2507 12.4067C17.0492 12.5407 16.786 12.6077 16.461 12.6077C16.1165 12.6077 15.7948 12.5056 15.4958 12.3014ZM9.96907 9.5476V12.5312H12.5V14.8278H7.70258V10.8808L9.96907 9.5476ZM9.96907 8.24006V5.25842H7.70258V9.0819L9.96907 8.24006ZM5.78917 9.79259C5.55384 9.71166 5.28622 9.65801 4.9863 9.63163C5.52421 9.5168 5.92614 9.2648 6.19207 8.87565C6.46405 8.48649 6.60004 8.05268 6.60004 7.57421C6.60004 7.1404 6.49125 6.75125 6.27367 6.40675C6.05608 6.05587 5.72064 5.77836 5.26734 5.57421C4.81404 5.36369 4.25497 5.25842 3.59013 5.25842H0V11.9429L5.78917 9.79259ZM7.14308 11.21C7.21622 11.4595 7.25279 11.7053 7.25279 11.9474C7.25279 12.4578 7.13191 12.9299 6.89015 13.3637C6.64839 13.7975 6.27064 14.1484 5.7569 14.4163C5.24921 14.6843 4.61761 14.8182 3.86211 14.8182H2.25743V14.8278H0.992739L7.14308 11.21ZM3.59013 8.88522C3.83794 8.88522 4.02228 8.81823 4.14316 8.68426C4.27008 8.55029 4.33354 8.39399 4.33354 8.21536C4.33354 8.04311 4.27008 7.89 4.14316 7.75603C4.02228 7.62206 3.83794 7.55507 3.59013 7.55507H2.2665V8.88522H3.59013Z" fill="url(#paint0_linear_4068_75)"/>
<defs>
<linearGradient id="paint0_linear_4068_75" x1="9.5" y1="5.5" x2="13.9666" y2="9.45303" gradientUnits="userSpaceOnUse">
<stop stop-color="#88A3AD"/>
<stop offset="1" stop-color="#748F99"/>
</linearGradient>
</defs>
</svg>
